<?xml version="1.0" encoding="UTF-8" standalone="no"?>
<!-- Created with Inkscape (http://www.inkscape.org/) -->

<svg
   width="250mm"
   height="100mm"
   viewBox="0 0 250 100"
   version="1.1"
   id="svg1613"
   inkscape:version="1.1.2 (0a00cf5339, 2022-02-04)"
   sodipodi:docname="enarx-black-text.svg"
   inkscape:export-filename="/home/ben/documents/pictures/enarx-word-black-bg.png"
   inkscape:export-xdpi="76.199997"
   inkscape:export-ydpi="76.199997"
   xmlns:inkscape="http://www.inkscape.org/namespaces/inkscape"
   xmlns:sodipodi="http://sodipodi.sourceforge.net/DTD/sodipodi-0.dtd"
   xmlns="http://www.w3.org/2000/svg"
   xmlns:svg="http://www.w3.org/2000/svg"
   xmlns:rdf="http://www.w3.org/1999/02/22-rdf-syntax-ns#"
   xmlns:cc="http://creativecommons.org/ns#"
   xmlns:dc="http://purl.org/dc/elements/1.1/">
  <defs
     id="defs1607">
    <clipPath
       id="c0">
      <path
         d="M 15.4,369 V 19.8 H 329.5 V 369 Z"
         id="path1569" />
    </clipPath>
    <style
       type="text/css"
       id="style1572"><![CDATA[
.g0{
fill: #000001;
}
.g1{
fill: #FFFFFF;
}
.g2{
fill: #AFB4AF;
}
.g3{
fill: #CBD1C9;
}
.g4{
fill: none;
stroke: #AFB4AF;
stroke-width: 1.222;
stroke-linecap: butt;
stroke-linejoin: miter;
}
.g5{
fill: none;
stroke: #AFB4AF;
stroke-width: 1.527;
stroke-linecap: butt;
stroke-linejoin: miter;
}
]]></style>
  </defs>
  <sodipodi:namedview
     id="base"
     pagecolor="#ffffff"
     bordercolor="#666666"
     borderopacity="1.0"
     inkscape:pageopacity="0.0"
     inkscape:pageshadow="2"
     inkscape:zoom="0.76999287"
     inkscape:cx="524.68018"
     inkscape:cy="118.18291"
     inkscape:document-units="mm"
     inkscape:current-layer="layer1"
     showgrid="false"
     inkscape:window-width="1920"
     inkscape:window-height="1043"
     inkscape:window-x="0"
     inkscape:window-y="0"
     inkscape:window-maximized="1"
     inkscape:pagecheckerboard="1"
     inkscape:object-paths="true"
     inkscape:snap-smooth-nodes="true"
     inkscape:snap-intersection-paths="false"
     inkscape:snap-object-midpoints="true"
     inkscape:snap-center="true"
     inkscape:snap-bbox="false"
     inkscape:snap-global="false"
     inkscape:snap-midpoints="false"
     inkscape:snap-others="true"
     inkscape:object-nodes="true"
     inkscape:snap-nodes="false"
     showguides="true"
     inkscape:guide-bbox="true"
     inkscape:snap-grids="true" />
  <metadata
     id="metadata1610">
    <rdf:RDF>
      <cc:Work
         rdf:about="">
        <dc:format>image/svg+xml</dc:format>
        <dc:type
           rdf:resource="http://purl.org/dc/dcmitype/StillImage" />
      </cc:Work>
    </rdf:RDF>
  </metadata>
  <g
     inkscape:label="Layer 1"
     inkscape:groupmode="layer"
     id="layer1"
     transform="translate(0,-225)">
    <path
       style="display:inline;opacity:1;fill:#0a0a0a;fill-opacity:1;stroke:none;stroke-width:9.11684;stroke-linecap:round;stroke-linejoin:miter;stroke-miterlimit:4;stroke-dasharray:none;stroke-opacity:1;paint-order:stroke fill markers"
       d="m 6.2983878,229.78082 v 8.32708 h -6.814e-4 v 12.44759 H 53.822668 c -2.471253,1.90384 -4.864459,3.83935 -7.171144,5.79743 H 6.2977064 v 12.4476 H 33.342266 c -1.875134,1.93633 -3.660482,3.87216 -5.359753,5.79741 H 6.2977064 v 4.44689 c 0.5793146,2.71288 1.3337621,5.38536 2.2586061,8.00069 h 9.5478705 c -1.387587,1.97356 -2.662477,3.91 -3.820108,5.79742 h -3.341478 c 0.491046,1.03005 1.00945,2.04684 1.554669,3.04926 -1.49693,2.66446 -2.7495895,5.21517 -3.7265635,7.6054 -0.7014,1.64565 1.7954645,2.66514 2.4463685,0.99887 6.782371,-16.59344 27.936015,-42.3251 57.957022,-61.50742 1.135696,-0.7057 0.624877,-2.45855 -0.712131,-2.44365 -0.252513,0.003 -0.498933,0.0779 -0.710083,0.21646 -1.869326,1.19444 -3.703944,2.41318 -5.503816,3.65212 v -2.18555 h 6.84e-4 v -12.4476 H 49.614749 v 8.32708 h -9.024185 v -8.32708 H 27.956567 v 8.32708 h -9.024183 v -8.32708 z m 55.0272502,21.57011 c -1.276733,1.7e-4 -2.311687,1.03514 -2.311862,2.31186 4.53e-4,0.79913 0.413534,1.5414 1.092433,1.96297 l -0.199368,12.69202 c -0.562412,0.43723 -0.891889,1.10929 -0.893065,1.82164 -2.06e-4,1.27701 1.034861,2.31239 2.311862,2.31256 1.277003,-1.7e-4 2.312069,-1.03555 2.311863,-2.31256 -4.83e-4,-0.79595 -0.410335,-1.5357 -1.08492,-1.95817 l 0.198685,-12.7016 c 0.558526,-0.43755 0.885231,-1.10733 0.886235,-1.81686 -1.73e-4,-1.27672 -1.03513,-2.31169 -2.311863,-2.31186 z m -6.613319,9.43385 -4.283706,0.0873 c -0.297388,0.007 -0.583663,0.11436 -0.812497,0.30451 -2.219947,1.83499 -4.451708,3.70652 -6.730076,6.61264 -1.227202,0.0644 -2.189632,1.0775 -2.191011,2.30641 1.7e-4,1.27672 1.03513,2.31169 2.311864,2.31185 1.276998,2e-4 2.312369,-1.03487 2.312545,-2.31185 4.7e-5,-0.3069 -0.06099,-0.61072 -0.179569,-0.89377 1.931993,-2.41998 3.807362,-4.02556 5.825402,-5.69771 l 2.45183,-0.0493 v 4.61279 c -0.740635,0.40588 -1.201054,1.18329 -1.200994,2.02785 1.76e-4,1.27672 1.035131,2.31169 2.311864,2.31186 1.276733,-1.7e-4 2.311689,-1.03514 2.311863,-2.31186 -0.0011,-0.66112 -0.28518,-1.29015 -0.780406,-1.72811 v -6.26168 c 2.3e-5,-0.73986 -0.607387,-1.33558 -1.347109,-1.32117 z m -19.871371,15.28519 c -1.276737,1.7e-4 -2.311693,1.03512 -2.311862,2.31187 -2.05e-4,1.27699 1.034861,2.31238 2.311862,2.31254 0.759303,-8.6e-4 1.469787,-0.37447 1.900836,-0.99957 0.05125,0.006 0.102758,0.008 0.154305,0.008 h 21.649989 c 0.431896,0.62105 1.140274,0.99156 1.896738,0.99207 1.277004,-1.6e-4 2.312068,-1.03554 2.311863,-2.31254 -1.66e-4,-1.27673 -1.035125,-2.3117 -2.311863,-2.31188 -0.754881,10e-4 -1.461667,0.37073 -1.893327,0.99005 h -21.6534 c -0.0513,-8.1e-4 -0.102563,10e-4 -0.153623,0.007 -0.431794,-0.62427 -1.142479,-0.99682 -1.901518,-0.99685 z m 17.24953,7.55145 c -0.775665,3.2e-4 -1.499495,0.38953 -1.927464,1.03646 l -22.352559,0.043 c -0.358485,7.5e-4 -0.701278,0.14714 -0.949735,0.40559 -2.113827,2.19861 -3.493321,4.20561 -4.834701,6.39483 -0.944681,0.31376 -1.582512,1.19693 -1.583347,2.19235 -2.11e-4,1.27703 1.034857,2.3124 2.311863,2.31257 1.277007,-1.7e-4 2.312073,-1.03554 2.311862,-2.31257 -9.2e-4,-0.48849 -0.156519,-0.96413 -0.444481,-1.35869 1.102306,-1.73979 2.235089,-3.29728 3.807815,-4.99106 l 21.798831,-0.0438 c 0.434837,0.5935 1.126172,0.94463 1.861916,0.94566 1.276999,-1.7e-4 2.312065,-1.03554 2.311861,-2.31256 -1.74e-4,-1.27673 -1.03513,-2.31168 -2.311861,-2.31187 z m 7.358907,0 c -1.276734,1.8e-4 -2.31169,1.03512 -2.311865,2.31187 10e-4,0.50513 0.167469,0.99601 0.473846,1.39763 -0.520191,1.40121 -1.127041,2.76757 -1.814807,4.10344 -1.211886,0.0828 -2.153178,1.08898 -2.154826,2.30369 -2.06e-4,1.277 1.034861,2.31236 2.311862,2.31254 1.277269,2.3e-4 2.312753,-1.03527 2.312548,-2.31254 -7.07e-4,-0.32359 -0.06932,-0.64341 -0.201421,-0.93883 0.782834,-1.50642 1.473178,-3.05691 2.060606,-4.65444 0.972467,-0.29709 1.636698,-1.19466 1.636602,-2.21149 -1.75e-4,-1.27701 -1.035545,-2.31209 -2.312545,-2.31187 z m -27.902807,8.95043 c -0.45156,1.4e-4 -0.871786,0.23088 -1.114283,0.61178 l -3.952561,6.18249 c -1.182218,0.118 -2.082561,1.11285 -2.082451,2.30093 1.75e-4,1.27675 1.035131,2.3117 2.311862,2.31188 1.277001,2.1e-4 2.312373,-1.03487 2.312548,-2.31188 -9.33e-4,-0.34877 -0.08078,-0.69285 -0.233509,-1.00639 l 3.481449,-5.44372 13.978372,0.0158 2.672366,5.24777 c -0.215432,0.3584 -0.329639,0.7685 -0.33046,1.18665 1.74e-4,1.277 1.035544,2.31207 2.312544,2.31186 1.276733,-1.7e-4 2.311688,-1.03512 2.311862,-2.31186 -4.1e-4,-1.11066 -0.790468,-2.06411 -1.881716,-2.27088 l -3.097049,-6.08351 c -0.225106,-0.44325 -0.679956,-0.72265 -1.177097,-0.72304 z m -13.584413,6.78268 c -1.277001,1.7e-4 -2.312067,1.03553 -2.311861,2.31252 0.0014,1.07316 0.741131,2.00422 1.786126,2.24837 0.874618,1.47029 1.962713,3.24129 5.07026,6.04048 -8.12e-4,0.0154 -0.0014,0.0304 -0.002,0.0458 1.69e-4,1.27701 1.035541,2.31206 2.312544,2.31187 1.276737,-1.8e-4 2.311696,-1.03512 2.311865,-2.31187 2.01e-4,-1.27701 -1.034862,-2.31237 -2.311865,-2.31254 -0.253015,6.8e-4 -0.504197,0.043 -0.743535,0.12483 -2.523329,-2.28109 -3.391584,-3.59811 -4.163539,-4.90093 0.238043,-0.372 0.364563,-0.8044 0.364599,-1.24607 2.06e-4,-1.27725 -1.035277,-2.31272 -2.312544,-2.31253 z m 17.679675,0 c -1.277266,-2.1e-4 -2.312751,1.03527 -2.312546,2.31252 1.71e-4,1.27702 1.035547,2.31209 2.312546,2.31188 1.276735,-1.8e-4 2.311688,-1.03513 2.311864,-2.31188 2.05e-4,-1.27699 -1.034861,-2.31235 -2.311864,-2.31252 z m 7.343203,0 c -1.277001,1.7e-4 -2.312069,1.03553 -2.311866,2.31252 0.0013,0.75501 0.371155,1.46182 0.990704,1.89334 l -0.06828,8.27791 c -2.005558,2.27769 -4.13204,4.2725 -6.384595,5.98655 -1.196541,-0.91059 -2.344786,-1.82043 -3.191951,-2.82805 l 0.01571,-3.61527 2.002567,-0.0233 c 0.434352,0.59925 1.129322,0.95437 1.869427,0.95522 1.276737,-1.8e-4 2.311695,-1.03512 2.311862,-2.31187 2.06e-4,-1.27701 -1.034859,-2.31237 -2.311862,-2.31254 -0.771059,5.3e-4 -1.491111,0.38538 -1.919952,1.02621 l -3.284129,0.0367 c -0.721349,0.01 -1.302415,0.59432 -1.305456,1.31572 l -0.02322,5.48603 c -0.0013,0.29743 0.09784,0.58658 0.281301,0.8207 1.364714,1.74422 3.114892,3.04994 4.792372,4.28917 0.459672,0.33908 1.085187,0.3444 1.550572,0.0126 2.906185,-2.06892 5.493698,-4.6193 7.91195,-7.40327 0.206341,-0.23801 0.320876,-0.5419 0.322951,-0.85689 l 0.07304,-8.8528 c 0.620793,-0.43206 0.991035,-1.14042 0.991385,-1.89676 2.04e-4,-1.27723 -1.035277,-2.31271 -2.312546,-2.31251 z"
       id="rect1593-3-5"
       inkscape:export-xdpi="96"
       inkscape:export-ydpi="96"
       inkscape:connector-curvature="0"
       sodipodi:nodetypes="ccccccccccccccccccccscccccccccccccccccccccccccccccccsccccccccccccccccccccccccccccscccccccccccccccccccccccccccccccccccccccsccccccccccssccccccccccccccccccccccccccccc" />
    <g
       id="g3481"
       style="fill:#000000;stroke:none;stroke-width:0.661655;stroke-linecap:round;stroke-miterlimit:4;stroke-dasharray:none;stroke-opacity:1;paint-order:stroke fill markers"
       transform="matrix(8.5528917,0,0,8.5528917,-773.21932,-2132.2134)">
      <path
         d="m 99.376299,283.51914 h 3.889371 v -1.05833 h -2.67229 v -0.92604 h 1.74625 v -1.00542 h -1.74625 v -0.87313 h 2.64584 v -1.05833 h -3.862921 z"
         class="g1"
         id="path1696"
         style="fill:#000000;stroke:none;stroke-width:0.661655;stroke-linecap:round;stroke-miterlimit:4;stroke-dasharray:none;stroke-opacity:1;paint-order:stroke fill markers" />
      <path
         d="m 103.92713,283.51914 h 1.13771 v -2.51354 c 0.13229,-0.18521 0.37042,-0.29104 0.66146,-0.29104 0.39687,0 0.66146,0.26458 0.66146,0.66146 v 2.14312 h 1.13771 v -2.27542 c 0,-0.89958 -0.60855,-1.50812 -1.48167,-1.50812 -0.37042,0 -0.71438,0.10583 -0.97896,0.3175 v -0.23813 h -1.13771 z"
         class="g1"
         id="path1698"
         style="fill:#000000;stroke:none;stroke-width:0.661655;stroke-linecap:round;stroke-miterlimit:4;stroke-dasharray:none;stroke-opacity:1;paint-order:stroke fill markers" />
      <path
         d="m 109.37755,283.57206 c 0.39687,0 0.74083,-0.0794 1.03187,-0.29104 v 0.23812 h 1.11125 v -2.38125 c 0,-0.89958 -0.58208,-1.40229 -1.61395,-1.40229 -0.58209,0 -1.13771,0.13229 -1.7198,0.39687 l 0.39688,0.84667 c 0.47625,-0.21167 0.82021,-0.29104 1.11125,-0.29104 0.47625,0 0.71437,0.18521 0.71437,0.55562 v 0.18521 c -0.26458,-0.0794 -0.55562,-0.10583 -0.84666,-0.10583 -0.9525,0 -1.50813,0.39687 -1.50813,1.11125 0,0.66146 0.52917,1.13771 1.32292,1.13771 z m -0.26458,-1.16417 c 0,-0.23812 0.23812,-0.37042 0.60854,-0.37042 0.23812,0 0.47625,0.0265 0.68791,0.0794 v 0.47625 c -0.21166,0.13229 -0.42333,0.18521 -0.71437,0.18521 -0.37042,0 -0.58208,-0.15875 -0.58208,-0.37042 z"
         class="g1"
         id="path1700"
         style="fill:#000000;stroke:none;stroke-width:0.661655;stroke-linecap:round;stroke-miterlimit:4;stroke-dasharray:none;stroke-opacity:1;paint-order:stroke fill markers" />
      <path
         d="m 112.18213,283.51914 h 1.13771 v -2.35479 c 0.21167,-0.29104 0.50271,-0.47625 0.87313,-0.47625 0.1852,0 0.39687,0.0529 0.52916,0.10583 v -0.97896 c -0.0794,-0.0529 -0.21166,-0.0794 -0.42333,-0.0794 -0.39688,0 -0.71438,0.15875 -0.97896,0.44979 v -0.37042 h -1.13771 z"
         class="g1"
         id="path1702"
         style="fill:#000000;stroke:none;stroke-width:0.661655;stroke-linecap:round;stroke-miterlimit:4;stroke-dasharray:none;stroke-opacity:1;paint-order:stroke fill markers" />
      <path
         d="m 114.82797,283.51914 h 1.27 l 0.76729,-1.05833 0.76729,1.05833 h 1.32291 l -1.42875,-1.905 1.34938,-1.79917 h -1.27 l -0.71438,0.97896 -0.71437,-0.97896 h -1.32292 l 1.37584,1.82563 z"
         class="g1"
         id="path1704"
         style="fill:#000000;stroke:none;stroke-width:0.661655;stroke-linecap:round;stroke-miterlimit:4;stroke-dasharray:none;stroke-opacity:1;paint-order:stroke fill markers" />
    </g>
  </g>
</svg>
