<svg width="130" height="130" viewBox="0 0 130 130" fill="none" xmlns="http://www.w3.org/2000/svg">
<g clip-path="url(#clip0)">
<path d="M64.7501 34.9C63.7611 34.9 62.7944 34.6068 61.9722 34.0574C61.15 33.508 60.5091 32.7271 60.1307 31.8134C59.7522 30.8998 59.6532 29.8945 59.8461 28.9246C60.0391 27.9547 60.5153 27.0637 61.2145 26.3645C61.9138 25.6652 62.8047 25.189 63.7746 24.9961C64.7445 24.8032 65.7498 24.9022 66.6635 25.2806C67.5771 25.6591 68.358 26.2999 68.9074 27.1222C69.4568 27.9444 69.7501 28.9111 69.7501 29.9C69.7501 31.2261 69.2233 32.4979 68.2856 33.4355C67.3479 34.3732 66.0761 34.9 64.7501 34.9ZM64.7501 27.9C64.3545 27.9 63.9678 28.0173 63.6389 28.2371C63.31 28.4568 63.0537 28.7692 62.9023 29.1346C62.7509 29.5001 62.7113 29.9022 62.7885 30.2902C62.8657 30.6782 63.0561 31.0345 63.3358 31.3142C63.6155 31.5939 63.9719 31.7844 64.3599 31.8616C64.7478 31.9388 65.15 31.8991 65.5154 31.7478C65.8809 31.5964 66.1932 31.34 66.413 31.0112C66.6328 30.6823 66.7501 30.2956 66.7501 29.9C66.7501 29.3696 66.5393 28.8609 66.1643 28.4858C65.7892 28.1107 65.2805 27.9 64.7501 27.9ZM65.6501 67.27L70.0001 64.43C70.2418 64.2671 70.4316 64.0382 70.5468 63.7705C70.6621 63.5027 70.6979 63.2075 70.6501 62.92L69.5901 56.61C69.5237 56.2122 69.3021 55.857 68.9739 55.6226C68.6457 55.3881 68.2379 55.2937 67.8401 55.36C67.4422 55.4263 67.087 55.6479 66.8526 55.9761C66.6182 56.3043 66.5237 56.7122 66.5901 57.11L67.4901 62.46L64.8101 64.22L62.1301 62.46L63.0401 57.11C63.1064 56.7122 63.0119 56.3043 62.7775 55.9761C62.5431 55.6479 62.1879 55.4263 61.7901 55.36C61.3922 55.2937 60.9844 55.3881 60.6562 55.6226C60.328 55.857 60.1064 56.2122 60.0401 56.61L59.0001 62.92C58.952 63.2086 58.9887 63.5049 59.1059 63.773C59.2231 64.041 59.4156 64.2693 59.6601 64.43L64.0001 67.27C64.2437 67.4303 64.5284 67.5171 64.8201 67.52C65.1149 67.5173 65.4028 67.4306 65.6501 67.27V67.27ZM77.1201 46.16L71.8901 41C73.4701 38.8104 74.5652 36.3091 75.1025 33.663C75.6398 31.0168 75.607 28.2865 75.0061 25.6541C74.4052 23.0216 73.2502 20.5474 71.6179 18.3965C69.9856 16.2456 67.9137 14.4672 65.5401 13.18C65.3203 13.0618 65.0746 13 64.8251 13C64.5755 13 64.3299 13.0618 64.1101 13.18C61.7356 14.4663 59.6627 16.244 58.0294 18.3946C56.3962 20.5451 55.2401 23.0191 54.6383 25.6516C54.0364 28.2842 54.0027 31.0147 54.5393 33.6613C55.0759 36.3079 56.1704 38.8098 57.7501 41L52.5201 46.12C52.342 46.2978 52.2105 46.5167 52.1372 46.7574C52.064 46.9981 52.0512 47.2532 52.1001 47.5L53.5401 54.5C53.5911 54.7407 53.7005 54.9651 53.8587 55.1536C54.0169 55.342 54.219 55.4886 54.4473 55.5805C54.6755 55.6724 54.9228 55.7067 55.1675 55.6805C55.4121 55.6542 55.6465 55.5682 55.8501 55.43C58.499 53.6351 61.6253 52.6757 64.8251 52.6757C68.0248 52.6757 71.1511 53.6351 73.8001 55.43C74.0475 55.5992 74.3403 55.6898 74.6401 55.69C74.8324 55.6934 75.0233 55.6559 75.2001 55.58C75.4292 55.4893 75.6323 55.3432 75.7911 55.1547C75.95 54.9662 76.0595 54.7412 76.1101 54.5L77.5401 47.5C77.5821 47.2593 77.5659 47.0121 77.4929 46.779C77.4198 46.5458 77.292 46.3336 77.1201 46.16V46.16ZM64.8201 16.23C66.7841 17.4241 68.4678 19.0273 69.7566 20.9306C71.0453 22.8338 71.9089 24.9924 72.2885 27.2594C72.668 29.5264 72.5547 31.8486 71.9562 34.0678C71.3577 36.2871 70.288 38.3513 68.8201 40.12V40.12C67.6879 41.4817 66.3359 42.6444 64.8201 43.56C63.3062 42.6417 61.9546 41.4793 60.8201 40.12V40.12C59.3521 38.3513 58.2824 36.2871 57.6839 34.0678C57.0854 31.8486 56.9721 29.5264 57.3517 27.2594C57.7312 24.9924 58.5948 22.8338 59.8835 20.9306C61.1723 19.0273 62.856 17.4241 64.8201 16.23V16.23ZM73.5901 51.81C70.8815 50.4007 67.8733 49.6649 64.8201 49.6649C61.7668 49.6649 58.7586 50.4007 56.0501 51.81L55.2101 47.73L59.7001 43.33C61.0046 44.6326 62.4898 45.7406 64.1101 46.62C64.3282 46.7378 64.5721 46.7996 64.8201 46.8C65.0711 46.7996 65.3183 46.7378 65.5401 46.62C67.1556 45.738 68.6372 44.6302 69.9401 43.33L74.4401 47.73L73.5901 51.81ZM107.37 72.44C107.37 72.44 97.7201 58.89 97.6801 58.85C97.6352 58.7951 97.5849 58.7449 97.5301 58.7C97.4539 58.6287 97.3659 58.5712 97.2701 58.53L83.5201 50.53C83.1753 50.3311 82.7656 50.2773 82.3811 50.3804C81.9967 50.4836 81.669 50.7352 81.4701 51.08C81.2711 51.4248 81.2173 51.8345 81.3205 52.2189C81.4236 52.6034 81.6753 52.9311 82.0201 53.13L93.5701 59.8L64.8201 76.46L36.0801 59.85L47.6201 53.18C47.9536 52.9834 48.1975 52.6647 48.3002 52.2914C48.4029 51.9181 48.3562 51.5195 48.1701 51.18C47.9694 50.8371 47.6417 50.587 47.258 50.4841C46.8742 50.3811 46.4654 50.4336 46.1201 50.63L32.3701 58.63C32.2755 58.6736 32.1879 58.7309 32.1101 58.8L31.9601 58.95L22.2801 72.44C22.1571 72.6096 22.0712 72.8033 22.0282 73.0084C21.9851 73.2134 21.9857 73.4253 22.0301 73.63C22.0745 73.8348 22.1615 74.028 22.2856 74.1968C22.4096 74.3657 22.5679 74.5065 22.7501 74.61L31.5601 79.7V96.53C31.5599 96.7935 31.6291 97.0523 31.7608 97.2806C31.8924 97.5088 32.0819 97.6983 32.3101 97.83L64.0701 116.17H64.1301L64.3801 116.28H64.4701C64.6986 116.347 64.9415 116.347 65.1701 116.28H65.2601L65.5201 116.17L97.3301 97.83C97.5596 97.6999 97.7502 97.5107 97.8821 97.2821C98.0139 97.0536 98.0823 96.7939 98.0801 96.53V79.7L106.89 74.61C107.074 74.5038 107.233 74.3597 107.357 74.1874C107.482 74.015 107.568 73.8182 107.61 73.61C107.651 73.4089 107.651 73.2015 107.61 73.0004C107.569 72.7994 107.487 72.6087 107.37 72.44V72.44ZM33.4901 61.82L62.6501 78.67L54.8301 89.67L25.6801 72.83L33.4901 61.82ZM34.5601 81.43L54.5101 93C54.7397 93.1276 54.9974 93.1963 55.2601 93.2C55.5003 93.1997 55.737 93.1424 55.9508 93.0329C56.1646 92.9234 56.3494 92.7647 56.4901 92.57L63.3201 82.93V112.27L34.5601 95.67V81.43ZM95.0801 95.67L66.3201 112.27V82.9L73.1601 92.54C73.298 92.7352 73.4808 92.8943 73.6932 93.0039C73.9055 93.1136 74.1411 93.1705 74.3801 93.17C74.6431 93.1689 74.9014 93.1 75.1301 92.97L95.0801 81.43V95.67ZM74.8101 89.67L67.0001 78.67L96.1501 61.82L103.97 72.82L74.8101 89.67Z" fill="#000000"/>
</g>
<defs>
<clipPath id="clip0">
<rect width="85.64" height="103.37" fill="white" transform="translate(22 13)"/>
</clipPath>
</defs>
</svg>