<?xml version="1.0" encoding="utf-8"?><svg version="1.1" id="Layer_1" xmlns="http://www.w3.org/2000/svg" xmlns:xlink="http://www.w3.org/1999/xlink" x="0px" y="0px" viewBox="0 0 122.88 66.25" style="enable-background:new 0 0 122.88 66.25" xml:space="preserve"><style type="text/css"><![CDATA[
	.st0{fill-rule:evenodd;clip-rule:evenodd;}
]]></style><g><path class="st0" d="M8.75,36.89c-0.65,0-1.17-0.57-1.17-1.28c0-0.71,0.52-1.28,1.17-1.28h10.01c0.65,0,1.17,0.57,1.17,1.28 c0,0.71-0.52,1.28-1.17,1.28H8.75L8.75,36.89L8.75,36.89z M65.62,36.82L52.34,24.06v8.22h-7.63V20.64c0-0.82-0.34-1.58-0.88-2.12 c-0.54-0.54-1.29-0.88-2.12-0.88h-4.19l0,0v-7.63c0-0.82-0.34-1.58-0.88-2.12c-0.54-0.54-1.29-0.88-2.12-0.88H3 c-0.83,0-1.58,0.34-2.12,0.88C0.34,8.43,0,9.18,0,10.01v38.47c0,0.82,0.34,1.58,0.88,2.12c0.54,0.54,1.29,0.88,2.12,0.88h4.19v4.77 c0,0.83,0.34,1.58,0.88,2.12c0.54,0.54,1.29,0.88,2.12,0.88h31.53c0.82,0,1.58-0.34,2.12-0.88c0.54-0.54,0.88-1.29,0.88-2.12V41.37 h7.63v8.22L65.62,36.82L65.62,36.82z M78.07,14.66c4.45,1.49,10.65,2.4,17.54,2.4s13.08-0.92,17.54-2.4 c3.91-1.31,6.33-2.88,6.33-4.43c0-1.55-2.42-3.13-6.33-4.43c-4.45-1.48-10.65-2.4-17.54-2.4S82.52,4.31,78.07,5.8 C69.78,8.57,69.54,11.81,78.07,14.66L78.07,14.66L78.07,14.66z M119.48,46.15c-1.39,0.95-3.17,1.79-5.26,2.49 c-4.8,1.6-11.38,2.59-18.61,2.59c-7.23,0-13.81-0.99-18.61-2.59c-2.07-0.69-3.83-1.52-5.22-2.45v10.16 c0.31,1.44,2.65,2.9,6.29,4.11c4.45,1.49,10.65,2.4,17.54,2.4s13.08-0.92,17.54-2.4c2.7-0.9,4.69-1.94,5.66-2.99 c0.8-0.87,0.67-1.45,0.67-2.5V46.15L119.48,46.15L119.48,46.15z M68.35,10.23c0-3.17,3.3-5.85,8.65-7.63 C81.79,0.99,88.38,0,95.61,0c7.23,0,13.81,0.99,18.61,2.59c4.86,1.62,8.04,3.99,8.57,6.8c0.06,0.18,0.1,0.37,0.1,0.57v46.77 c0,3.24-6.2,6.11-8.67,6.93c-4.8,1.6-11.38,2.59-18.61,2.59c-7.23,0-13.81-0.99-18.61-2.59c-2.53-0.85-8.61-3.62-8.61-6.93 c0-0.39,0-0.71,0-1.08C68.38,40.5,68.35,25.36,68.35,10.23L68.35,10.23L68.35,10.23z M71.78,41.32c0.31,1.44,2.65,2.9,6.29,4.11 c4.45,1.49,10.65,2.41,17.54,2.41s13.08-0.92,17.54-2.41c3.91-1.3,6.33-2.88,6.33-4.43h0.02v-9.87c-1.39,0.95-3.18,1.79-5.27,2.49 c-4.8,1.6-11.38,2.59-18.61,2.59c-7.23,0-13.81-0.99-18.61-2.59c-2.07-0.69-3.83-1.52-5.22-2.45V41.32L71.78,41.32L71.78,41.32z M71.78,26.3c0.31,1.44,2.65,2.9,6.29,4.11c4.45,1.49,10.65,2.4,17.54,2.4s13.08-0.92,17.54-2.4c3.91-1.3,6.33-2.88,6.33-4.43h0.02 v-10.6c-1.39,0.95-3.18,1.79-5.27,2.49c-4.8,1.6-11.38,2.59-18.61,2.59c-7.23,0-13.81-0.99-18.61-2.59 c-2.07-0.69-3.83-1.52-5.22-2.45V26.3L71.78,26.3L71.78,26.3z M9.76,51.48v4.77c0,0.12,0.05,0.23,0.13,0.3 c0.08,0.08,0.19,0.13,0.3,0.13h31.53c0.12,0,0.23-0.05,0.3-0.13c0.08-0.08,0.13-0.19,0.13-0.3V20.64c0-0.12-0.05-0.23-0.13-0.3 c-0.08-0.08-0.18-0.13-0.3-0.13h-4.19v28.27c0,0.82-0.34,1.58-0.88,2.12c-0.54,0.54-1.29,0.88-2.12,0.88L9.76,51.48L9.76,51.48 L9.76,51.48z M34.52,9.58H3c-0.12,0-0.23,0.05-0.3,0.13c-0.08,0.08-0.13,0.19-0.13,0.3v38.47c0,0.12,0.05,0.22,0.13,0.3 c0.08,0.08,0.19,0.13,0.3,0.13h31.53c0.12,0,0.23-0.05,0.3-0.13c0.08-0.08,0.13-0.18,0.13-0.3V10.01c0-0.12-0.05-0.23-0.13-0.3 C34.75,9.62,34.64,9.58,34.52,9.58L34.52,9.58L34.52,9.58z M8.75,19.59c-0.65,0-1.17-0.57-1.17-1.28c0-0.71,0.52-1.28,1.17-1.28 h20.02c0.65,0,1.17,0.57,1.17,1.28c0,0.71-0.52,1.28-1.17,1.28H8.75L8.75,19.59L8.75,19.59z M8.75,28.24 c-0.65,0-1.17-0.57-1.17-1.28s0.52-1.28,1.17-1.28h20.02c0.65,0,1.17,0.58,1.17,1.28s-0.52,1.28-1.17,1.28H8.75L8.75,28.24 L8.75,28.24z"/></g></svg>