<svg xmlns="http://www.w3.org/2000/svg" xmlns:xlink="http://www.w3.org/1999/xlink" xmlns:lucid="lucid" width="500" height="360"><g transform="translate(-520 -420)" lucid:page-tab-id="0_0"><path d="M640 680h240v40H640z" stroke="#000" stroke-width="2" fill="#ff8f80"/><use xlink:href="#a" transform="matrix(1,0,0,1,645,685) translate(89.05 18.15)"/><path d="M640 640h240v40H640z" stroke="#000" stroke-width="2" fill="#ffbbb1"/><use xlink:href="#b" transform="matrix(1,0,0,1,645,645) translate(94.05 18.15)"/><path d="M640 440h240v200H640z" stroke="#000" stroke-width="2" fill="#c7e8ac"/><use xlink:href="#c" transform="matrix(1,0,0,1,645,445) translate(58.55 14.4)"/><use xlink:href="#d" transform="matrix(1,0,0,1,645,445) translate(144.5 14.4)"/><path d="M680 560h160v40H680z" stroke="#000" stroke-width="2" fill="#83bbe5"/><use xlink:href="#e" transform="matrix(1,0,0,1,685,565) translate(43.875 18.15)"/><path d="M680 520h160v40H680z" stroke="#000" stroke-width="2" fill="#99d2f2"/><use xlink:href="#f" transform="matrix(1,0,0,1,685,525) translate(17.225 18.15)"/><use xlink:href="#g" transform="matrix(1,0,0,1,685,525) translate(77.475 18.15)"/><use xlink:href="#h" transform="matrix(1,0,0,1,685,525) translate(87.475 18.15)"/><path d="M678 540h-28v41.33h10.5" stroke="#000" stroke-width="2" fill="none"/><path d="M679 541h-1.03v-2H679z"/><path d="M675.76 581.33l-14.26 4.63v-9.27z" stroke="#000" stroke-width="2"/><path d="M842 580h108v181H760v-21.5" stroke="#000" stroke-width="2" fill="none"/><path d="M842.03 581H841v-2h1.03z"/><path d="M760 724.24l4.64 14.26h-9.28z" stroke="#000" stroke-width="2"/><path d="M638 700h-39v-38.67h21.5" stroke="#000" stroke-width="2" fill="none"/><path d="M639 701h-1.03v-2H639z"/><path d="M635.76 661.33l-14.26 4.63v-9.27z" stroke="#000" stroke-width="2"/><path d="M882 660h39v40h-21.5" stroke="#000" stroke-width="2" fill="none"/><path d="M882.03 661H881v-2h1.03z"/><path d="M884.24 700l14.26-4.64v9.28z" stroke="#000" stroke-width="2"/><path d="M680 480h160v40H680z" stroke="#000" stroke-width="2" fill="#c1e4f7"/><use xlink:href="#i" transform="matrix(1,0,0,1,685,485) translate(31.074999999999996 18.15)"/><path d="M842 500h28v40h-10.5" stroke="#000" stroke-width="2" fill="none"/><path d="M842.03 501H841v-2h1.03z"/><path d="M844.24 540l14.26-4.64v9.28zM940 520c0 11.05-8.95 20-20 20s-20-8.95-20-20 8.95-20 20-20 20 8.95 20 20z" stroke="#000" stroke-width="2"/><use xlink:href="#j" transform="matrix(1,0,0,1,905,505) translate(10 18.15)"/><path d="M620 560c0 11.05-8.95 20-20 20s-20-8.95-20-20 8.95-20 20-20 20 8.95 20 20z" stroke="#000" stroke-width="2"/><use xlink:href="#k" transform="matrix(1,0,0,1,585,545) translate(10 18.15)"/><path d="M1000 740c0 11.05-8.95 20-20 20s-20-8.95-20-20 8.95-20 20-20 20 8.95 20 20z" stroke="#000" stroke-width="2"/><use xlink:href="#l" transform="matrix(1,0,0,1,965,725) translate(10 18.15)"/><path d="M580 680c0 11.05-8.95 20-20 20s-20-8.95-20-20 8.95-20 20-20 20 8.95 20 20z" stroke="#000" stroke-width="2"/><use xlink:href="#m" transform="matrix(1,0,0,1,545,665) translate(10 18.15)"/><path d="M940 620c0 11.05-8.95 20-20 20s-20-8.95-20-20 8.95-20 20-20 20 8.95 20 20z" stroke="#000" stroke-width="2"/><g><use xlink:href="#n" transform="matrix(1,0,0,1,905,605) translate(10 18.15)"/></g><defs><path d="M194 0L95-120 63-95V0H30v-248h33v124l119-124h40L117-140 236 0h-42" id="o"/><path d="M100-194c63 0 86 42 84 106H49c0 40 14 67 53 68 26 1 43-12 49-29l28 8c-11 28-37 45-77 45C44 4 14-33 15-96c1-61 26-98 85-98zm52 81c6-60-76-77-97-28-3 7-6 17-6 28h103" id="p"/><path d="M114-163C36-179 61-72 57 0H25l-1-190h30c1 12-1 29 2 39 6-27 23-49 58-41v29" id="q"/><path d="M117-194c89-4 53 116 60 194h-32v-121c0-31-8-49-39-48C34-167 62-67 57 0H25l-1-190h30c1 10-1 24 2 32 11-22 29-35 61-36" id="r"/><path d="M24 0v-261h32V0H24" id="s"/><g id="a"><use transform="matrix(0.05,0,0,0.05,0,0)" xlink:href="#o"/><use transform="matrix(0.05,0,0,0.05,12,0)" xlink:href="#p"/><use transform="matrix(0.05,0,0,0.05,22,0)" xlink:href="#q"/><use transform="matrix(0.05,0,0,0.05,27.950000000000003,0)" xlink:href="#r"/><use transform="matrix(0.05,0,0,0.05,37.95,0)" xlink:href="#p"/><use transform="matrix(0.05,0,0,0.05,47.95,0)" xlink:href="#s"/></g><path d="M137 0h-34L2-248h35l83 218 83-218h36" id="t"/><path d="M240 0l2-218c-23 76-54 145-80 218h-23L58-218 59 0H30v-248h44l77 211c21-75 51-140 76-211h43V0h-30" id="u"/><g id="b"><use transform="matrix(0.05,0,0,0.05,0,0)" xlink:href="#t"/><use transform="matrix(0.05,0,0,0.05,12,0)" xlink:href="#u"/><use transform="matrix(0.05,0,0,0.05,26.950000000000003,0)" xlink:href="#u"/></g><path d="M30 0v-248h187v28H63v79h144v27H63v87h162V0H30" id="v"/><path d="M96-169c-40 0-48 33-48 73s9 75 48 75c24 0 41-14 43-38l32 2c-6 37-31 61-74 61-59 0-76-41-82-99-10-93 101-131 147-64 4 7 5 14 7 22l-32 3c-4-21-16-35-41-35" id="w"/><path d="M179-190L93 31C79 59 56 82 12 73V49c39 6 53-20 64-50L1-190h34L92-34l54-156h33" id="x"/><path d="M115-194c55 1 70 41 70 98S169 2 115 4C84 4 66-9 55-30l1 105H24l-1-265h31l2 30c10-21 28-34 59-34zm-8 174c40 0 45-34 45-75s-6-73-45-74c-42 0-51 32-51 76 0 43 10 73 51 73" id="y"/><path d="M59-47c-2 24 18 29 38 22v24C64 9 27 4 27-40v-127H5v-23h24l9-43h21v43h35v23H59v120" id="z"/><path d="M85-194c31 0 48 13 60 33l-1-100h32l1 261h-30c-2-10 0-23-3-31C134-8 116 4 85 4 32 4 16-35 15-94c0-66 23-100 70-100zm9 24c-40 0-46 34-46 75 0 40 6 74 45 74 42 0 51-32 51-76 0-42-9-74-50-73" id="A"/><g id="c"><use transform="matrix(0.05,0,0,0.05,0,0)" xlink:href="#v"/><use transform="matrix(0.05,0,0,0.05,12,0)" xlink:href="#r"/><use transform="matrix(0.05,0,0,0.05,22,0)" xlink:href="#w"/><use transform="matrix(0.05,0,0,0.05,31,0)" xlink:href="#q"/><use transform="matrix(0.05,0,0,0.05,36.95,0)" xlink:href="#x"/><use transform="matrix(0.05,0,0,0.05,45.95,0)" xlink:href="#y"/><use transform="matrix(0.05,0,0,0.05,55.95,0)" xlink:href="#z"/><use transform="matrix(0.05,0,0,0.05,60.95,0)" xlink:href="#p"/><use transform="matrix(0.05,0,0,0.05,70.95,0)" xlink:href="#A"/></g><g id="d"><use transform="matrix(0.05,0,0,0.05,0,0)" xlink:href="#t"/><use transform="matrix(0.05,0,0,0.05,12,0)" xlink:href="#u"/></g><path d="M101-21c69 0 42-103 47-169h32l1 190h-29c-2-10 0-24-3-33-7 37-74 51-93 15v87H24v-259h32c7 65-25 169 45 169" id="B"/><g id="e"><use transform="matrix(0.05,0,0,0.05,0,0)" xlink:href="#B"/><use transform="matrix(0.05,0,0,0.05,10.350000000000001,0)" xlink:href="#o"/><use transform="matrix(0.05,0,0,0.05,22.35,0)" xlink:href="#p"/><use transform="matrix(0.05,0,0,0.05,32.35,0)" xlink:href="#q"/><use transform="matrix(0.05,0,0,0.05,38.300000000000004,0)" xlink:href="#r"/><use transform="matrix(0.05,0,0,0.05,48.300000000000004,0)" xlink:href="#p"/><use transform="matrix(0.05,0,0,0.05,58.300000000000004,0)" xlink:href="#s"/></g><path d="M266 0h-40l-56-210L115 0H75L2-248h35L96-30l15-64 43-154h32l59 218 59-218h35" id="C"/><path d="M205 0l-28-72H64L36 0H1l101-248h38L239 0h-34zm-38-99l-47-123c-12 45-31 82-46 123h93" id="D"/><path d="M185-189c-5-48-123-54-124 2 14 75 158 14 163 119 3 78-121 87-175 55-17-10-28-26-33-46l33-7c5 56 141 63 141-1 0-78-155-14-162-118-5-82 145-84 179-34 5 7 8 16 11 25" id="E"/><g id="f"><use transform="matrix(0.05,0,0,0.05,0,0)" xlink:href="#C"/><use transform="matrix(0.05,0,0,0.05,16.3,0)" xlink:href="#D"/><use transform="matrix(0.05,0,0,0.05,28.3,0)" xlink:href="#E"/><use transform="matrix(0.05,0,0,0.05,40.3,0)" xlink:href="#u"/></g><path d="M0 4l72-265h28L28 4H0" id="F"/><use transform="matrix(0.05,0,0,0.05,0,0)" xlink:href="#F" id="g"/><path d="M33 0v-248h34V0H33" id="G"/><g id="h"><use transform="matrix(0.05,0,0,0.05,0,0)" xlink:href="#C"/><use transform="matrix(0.05,0,0,0.05,16.3,0)" xlink:href="#D"/><use transform="matrix(0.05,0,0,0.05,28.3,0)" xlink:href="#E"/><use transform="matrix(0.05,0,0,0.05,40.3,0)" xlink:href="#G"/></g><path d="M24-231v-30h32v30H24zM24 0v-190h32V0H24" id="H"/><path d="M141-36C126-15 110 5 73 4 37 3 15-17 15-53c-1-64 63-63 125-63 3-35-9-54-41-54-24 1-41 7-42 31l-33-3c5-37 33-52 76-52 45 0 72 20 72 64v82c-1 20 7 32 28 27v20c-31 9-61-2-59-35zM48-53c0 20 12 33 32 33 41-3 63-29 60-74-43 2-92-5-92 41" id="I"/><path d="M100-194c62-1 85 37 85 99 1 63-27 99-86 99S16-35 15-95c0-66 28-99 85-99zM99-20c44 1 53-31 53-75 0-43-8-75-51-75s-53 32-53 75 10 74 51 75" id="J"/><g id="i"><use transform="matrix(0.05,0,0,0.05,0,0)" xlink:href="#D"/><use transform="matrix(0.05,0,0,0.05,12,0)" xlink:href="#y"/><use transform="matrix(0.05,0,0,0.05,22,0)" xlink:href="#y"/><use transform="matrix(0.05,0,0,0.05,32,0)" xlink:href="#s"/><use transform="matrix(0.05,0,0,0.05,35.95,0)" xlink:href="#H"/><use transform="matrix(0.05,0,0,0.05,39.900000000000006,0)" xlink:href="#w"/><use transform="matrix(0.05,0,0,0.05,48.900000000000006,0)" xlink:href="#I"/><use transform="matrix(0.05,0,0,0.05,58.900000000000006,0)" xlink:href="#z"/><use transform="matrix(0.05,0,0,0.05,63.900000000000006,0)" xlink:href="#H"/><use transform="matrix(0.05,0,0,0.05,67.85000000000001,0)" xlink:href="#J"/><use transform="matrix(0.05,0,0,0.05,77.85000000000001,0)" xlink:href="#r"/></g><path fill="#fff" d="M23 0v-37h61v-169l-59 37v-38l62-41h46v211h57V0H23" id="K"/><use transform="matrix(0.05,0,0,0.05,0,0)" xlink:href="#K" id="j"/><path fill="#fff" d="M182-182c0 78-84 86-111 141h115V0H12c-6-101 99-100 120-180 1-22-12-31-33-32-23 0-32 14-35 34l-49-3c5-45 32-70 84-70 51 0 83 22 83 69" id="L"/><use transform="matrix(0.05,0,0,0.05,0,0)" xlink:href="#L" id="k"/><path fill="#fff" d="M128-127c34 4 56 21 59 58 7 91-148 94-172 28-4-9-6-17-7-26l51-5c1 24 16 35 40 36 23 0 39-12 38-36-1-31-31-36-65-34v-40c32 2 59-3 59-33 0-20-13-33-34-33s-33 13-35 32l-50-3c6-44 37-68 86-68 50 0 83 20 83 66 0 35-22 52-53 58" id="M"/><use transform="matrix(0.05,0,0,0.05,0,0)" xlink:href="#M" id="l"/><path fill="#fff" d="M165-50V0h-47v-50H5v-38l105-160h55v161h33v37h-33zm-47-37l2-116L46-87h72" id="N"/><use transform="matrix(0.05,0,0,0.05,0,0)" xlink:href="#N" id="m"/><path fill="#fff" d="M139-81c0-46-55-55-73-27H18l9-140h149v37H72l-4 63c44-38 133-4 122 66C201 21 21 35 11-62l49-4c5 18 15 30 39 30 26 0 40-18 40-45" id="O"/><use transform="matrix(0.05,0,0,0.05,0,0)" xlink:href="#O" id="n"/></defs></g></svg>