<?xml version="1.0" encoding="UTF-8" standalone="no"?>
<!DOCTYPE svg PUBLIC "-//W3C//DTD SVG 1.1//EN"
 "http://www.w3.org/Graphics/SVG/1.1/DTD/svg11.dtd">
<!-- Generated by graphviz version 2.44.0 (0)
 -->
<!-- Pages: 1 -->
<svg width="1471pt" height="1255pt"
 viewBox="0.00 0.00 1470.53 1255.23" xmlns="http://www.w3.org/2000/svg" xmlns:xlink="http://www.w3.org/1999/xlink">
<g id="graph0" class="graph" transform="scale(1 1) rotate(0) translate(4 1251.23)">
<polygon fill="transparent" stroke="transparent" points="-4,4 -4,-1251.23 1466.53,-1251.23 1466.53,4 -4,4"/>
<!-- Enarx -->
<g id="node1" class="node">
<title>Enarx</title>
<ellipse fill="white" stroke="white" cx="714.31" cy="-634.57" rx="122.38" ry="18"/>
<text text-anchor="middle" x="714.31" y="-630.87" font-family="Times-Roman" font-size="14.00">https://github.com/enarx</text>
</g>
<!-- CI -->
<g id="node26" class="node">
<title>CI</title>
<ellipse fill="white" stroke="white" cx="605.29" cy="-489.76" rx="27" ry="18"/>
<text text-anchor="middle" x="605.29" y="-486.06" font-family="Times-Roman" font-size="14.00">CI</text>
</g>
<!-- Enarx&#45;&#45;CI -->
<g id="edge1" class="edge">
<title>Enarx&#45;&#45;CI</title>
<path fill="none" stroke="white" d="M700.72,-616.52C679.37,-588.17 638.29,-533.6 617.69,-506.24"/>
</g>
<!-- Keep -->
<g id="node27" class="node">
<title>Keep</title>
<ellipse fill="white" stroke="white" cx="883.22" cy="-478.15" rx="32.49" ry="18"/>
<text text-anchor="middle" x="883.22" y="-474.45" font-family="Times-Roman" font-size="14.00">Keep</text>
</g>
<!-- Enarx&#45;&#45;Keep -->
<g id="edge2" class="edge">
<title>Enarx&#45;&#45;Keep</title>
<path fill="none" stroke="white" d="M733.68,-616.63C766.96,-585.81 834.44,-523.32 866.1,-494.01"/>
</g>
<!-- Deployment -->
<g id="node28" class="node">
<title>Deployment</title>
<ellipse fill="white" stroke="white" cx="734.04" cy="-407.64" rx="65.79" ry="18"/>
<text text-anchor="middle" x="734.04" y="-403.94" font-family="Times-Roman" font-size="14.00">Deployment</text>
</g>
<!-- Enarx&#45;&#45;Deployment -->
<g id="edge3" class="edge">
<title>Enarx&#45;&#45;Deployment</title>
<path fill="none" stroke="white" d="M715.89,-616.38C719.58,-573.89 728.75,-468.49 732.45,-425.92"/>
</g>
<!-- Runtime -->
<g id="node29" class="node">
<title>Runtime</title>
<ellipse fill="white" stroke="white" cx="596.2" cy="-808.86" rx="48.19" ry="18"/>
<text text-anchor="middle" x="596.2" y="-805.16" font-family="Times-Roman" font-size="14.00">Runtime</text>
</g>
<!-- Enarx&#45;&#45;Runtime -->
<g id="edge4" class="edge">
<title>Enarx&#45;&#45;Runtime</title>
<path fill="none" stroke="white" d="M702.11,-652.57C679.36,-686.14 630.72,-757.92 608.15,-791.22"/>
</g>
<!-- Advocacy -->
<g id="node30" class="node">
<title>Advocacy</title>
<ellipse fill="white" stroke="white" cx="495.52" cy="-627.08" rx="53.89" ry="18"/>
<text text-anchor="middle" x="495.52" y="-623.38" font-family="Times-Roman" font-size="14.00">Advocacy</text>
</g>
<!-- Enarx&#45;&#45;Advocacy -->
<g id="edge5" class="edge">
<title>Enarx&#45;&#45;Advocacy</title>
<path fill="none" stroke="white" d="M594.99,-630.49C578.99,-629.94 563.28,-629.4 549.24,-628.92"/>
</g>
<!-- Libraries -->
<g id="node31" class="node">
<title>Libraries</title>
<ellipse fill="white" stroke="white" cx="907.26" cy="-788.65" rx="50.09" ry="18"/>
<text text-anchor="middle" x="907.26" y="-784.95" font-family="Times-Roman" font-size="14.00">Libraries</text>
</g>
<!-- Enarx&#45;&#45;Libraries -->
<g id="edge6" class="edge">
<title>Enarx&#45;&#45;Libraries</title>
<path fill="none" stroke="white" d="M736.82,-652.55C774.59,-682.71 850.18,-743.07 886.65,-772.19"/>
</g>
<!-- Documentation -->
<g id="node32" class="node">
<title>Documentation</title>
<ellipse fill="white" stroke="white" cx="727.45" cy="-544.83" rx="79.09" ry="18"/>
<text text-anchor="middle" x="727.45" y="-541.13" font-family="Times-Roman" font-size="14.00">Documentation</text>
</g>
<!-- Enarx&#45;&#45;Documentation -->
<g id="edge7" class="edge">
<title>Enarx&#45;&#45;Documentation</title>
<path fill="none" stroke="white" d="M716.97,-616.41C719.25,-600.84 722.51,-578.53 724.79,-562.97"/>
</g>
<!-- enarx&#45;keepldr -->
<g id="node2" class="node">
<title>enarx&#45;keepldr</title>
<ellipse fill="coral" stroke="coral" cx="1062.09" cy="-330.5" rx="73.39" ry="18"/>
<text text-anchor="middle" x="1062.09" y="-326.8" font-family="Times-Roman" font-size="14.00" fill="white">enarx&#45;keepldr</text>
</g>
<!-- sev -->
<g id="node3" class="node">
<title>sev</title>
<ellipse fill="coral" stroke="coral" cx="1095.46" cy="-134.68" rx="27" ry="18"/>
<text text-anchor="middle" x="1095.46" y="-130.98" font-family="Times-Roman" font-size="14.00" fill="white">sev</text>
</g>
<!-- enarx&#45;keepldr&#45;&#45;sev -->
<g id="edge11" class="edge">
<title>enarx&#45;keepldr&#45;&#45;sev</title>
<path fill="none" stroke="white" d="M1065.17,-312.42C1071.53,-275.12 1086.04,-189.97 1092.39,-152.71"/>
</g>
<!-- sgx -->
<g id="node4" class="node">
<title>sgx</title>
<ellipse fill="coral" stroke="coral" cx="1257.18" cy="-280.83" rx="27" ry="18"/>
<text text-anchor="middle" x="1257.18" y="-277.13" font-family="Times-Roman" font-size="14.00" fill="white">sgx</text>
</g>
<!-- enarx&#45;keepldr&#45;&#45;sgx -->
<g id="edge12" class="edge">
<title>enarx&#45;keepldr&#45;&#45;sgx</title>
<path fill="none" stroke="white" d="M1113.1,-317.51C1151.26,-307.8 1201.83,-294.92 1231.79,-287.29"/>
</g>
<!-- xsave -->
<g id="node5" class="node">
<title>xsave</title>
<ellipse fill="coral" stroke="coral" cx="1425.49" cy="-208.23" rx="37.09" ry="18"/>
<text text-anchor="middle" x="1425.49" y="-204.53" font-family="Times-Roman" font-size="14.00" fill="white">xsave</text>
</g>
<!-- sgx&#45;&#45;xsave -->
<g id="edge13" class="edge">
<title>sgx&#45;&#45;xsave</title>
<path fill="none" stroke="white" d="M1279.88,-271.04C1310.39,-257.88 1364.59,-234.5 1397.56,-220.27"/>
</g>
<!-- bot -->
<g id="node6" class="node">
<title>bot</title>
<ellipse fill="#00688b" stroke="#00688b" cx="439.12" cy="-355.36" rx="27" ry="18"/>
<text text-anchor="middle" x="439.12" y="-351.66" font-family="Times-Roman" font-size="14.00" fill="white">bot</text>
</g>
<!-- bot&#45;test -->
<g id="node7" class="node">
<title>bot&#45;test</title>
<ellipse fill="#00688b" stroke="#00688b" cx="542.29" cy="-292.77" rx="46.29" ry="18"/>
<text text-anchor="middle" x="542.29" y="-289.07" font-family="Times-Roman" font-size="14.00" fill="white">bot&#45;test</text>
</g>
<!-- enarx&#45;keepmgr -->
<g id="node8" class="node">
<title>enarx&#45;keepmgr</title>
<ellipse fill="coral" stroke="coral" cx="874.28" cy="-268.98" rx="79.09" ry="18"/>
<text text-anchor="middle" x="874.28" y="-265.28" font-family="Times-Roman" font-size="14.00" fill="white">enarx&#45;keepmgr</text>
</g>
<!-- sevctl -->
<g id="node9" class="node">
<title>sevctl</title>
<ellipse fill="coral" stroke="coral" cx="587.55" cy="-18" rx="37.09" ry="18"/>
<text text-anchor="middle" x="587.55" y="-14.3" font-family="Times-Roman" font-size="14.00" fill="white">sevctl</text>
</g>
<!-- client -->
<g id="node10" class="node">
<title>client</title>
<ellipse fill="coral" stroke="coral" cx="758.09" cy="-224.97" rx="35.19" ry="18"/>
<text text-anchor="middle" x="758.09" y="-221.27" font-family="Times-Roman" font-size="14.00" fill="white">client</text>
</g>
<!-- enarx&#45;wasmldr -->
<g id="node11" class="node">
<title>enarx&#45;wasmldr</title>
<ellipse fill="coral" stroke="coral" cx="442.51" cy="-903.1" rx="77.99" ry="18"/>
<text text-anchor="middle" x="442.51" y="-899.4" font-family="Times-Roman" font-size="14.00" fill="white">enarx&#45;wasmldr</text>
</g>
<!-- primordial -->
<g id="node12" class="node">
<title>primordial</title>
<ellipse fill="coral" stroke="coral" cx="779.46" cy="-864.23" rx="56.59" ry="18"/>
<text text-anchor="middle" x="779.46" y="-860.53" font-family="Times-Roman" font-size="14.00" fill="white">primordial</text>
</g>
<!-- lset -->
<g id="node13" class="node">
<title>lset</title>
<ellipse fill="coral" stroke="coral" cx="1107.51" cy="-774.02" rx="27" ry="18"/>
<text text-anchor="middle" x="1107.51" y="-770.32" font-family="Times-Roman" font-size="14.00" fill="white">lset</text>
</g>
<!-- signrel -->
<g id="node14" class="node">
<title>signrel</title>
<ellipse fill="coral" stroke="coral" cx="1112.99" cy="-853.44" rx="40.89" ry="18"/>
<text text-anchor="middle" x="1112.99" y="-849.74" font-family="Times-Roman" font-size="14.00" fill="white">signrel</text>
</g>
<!-- mmarinus -->
<g id="node15" class="node">
<title>mmarinus</title>
<ellipse fill="coral" stroke="coral" cx="974.79" cy="-992.5" rx="56.59" ry="18"/>
<text text-anchor="middle" x="974.79" y="-988.8" font-family="Times-Roman" font-size="14.00" fill="white">mmarinus</text>
</g>
<!-- vdso -->
<g id="node16" class="node">
<title>vdso</title>
<ellipse fill="coral" stroke="coral" cx="1050.54" cy="-648.02" rx="32.49" ry="18"/>
<text text-anchor="middle" x="1050.54" y="-644.32" font-family="Times-Roman" font-size="14.00" fill="white">vdso</text>
</g>
<!-- iocuddle -->
<g id="node17" class="node">
<title>iocuddle</title>
<ellipse fill="coral" stroke="coral" cx="1097.45" cy="-704.09" rx="48.99" ry="18"/>
<text text-anchor="middle" x="1097.45" y="-700.39" font-family="Times-Roman" font-size="14.00" fill="white">iocuddle</text>
</g>
<!-- frenetic -->
<g id="node18" class="node">
<title>frenetic</title>
<ellipse fill="coral" stroke="coral" cx="865.33" cy="-1007.62" rx="44.69" ry="18"/>
<text text-anchor="middle" x="865.33" y="-1003.92" font-family="Times-Roman" font-size="14.00" fill="white">frenetic</text>
</g>
<!-- uabs -->
<g id="node19" class="node">
<title>uabs</title>
<ellipse fill="coral" stroke="coral" cx="790.83" cy="-950.49" rx="32.49" ry="18"/>
<text text-anchor="middle" x="790.83" y="-946.79" font-family="Times-Roman" font-size="14.00" fill="white">uabs</text>
</g>
<!-- lebicon -->
<g id="node20" class="node">
<title>lebicon</title>
<ellipse fill="coral" stroke="coral" cx="898.64" cy="-932.97" rx="42.79" ry="18"/>
<text text-anchor="middle" x="898.64" y="-929.27" font-family="Times-Roman" font-size="14.00" fill="white">lebicon</text>
</g>
<!-- nbytes -->
<g id="node21" class="node">
<title>nbytes</title>
<ellipse fill="coral" stroke="coral" cx="968.43" cy="-656.75" rx="41.69" ry="18"/>
<text text-anchor="middle" x="968.43" y="-653.05" font-family="Times-Roman" font-size="14.00" fill="white">nbytes</text>
</g>
<!-- crt0stack -->
<g id="node22" class="node">
<title>crt0stack</title>
<ellipse fill="coral" stroke="coral" cx="849.46" cy="-718.24" rx="52.79" ry="18"/>
<text text-anchor="middle" x="849.46" y="-714.54" font-family="Times-Roman" font-size="14.00" fill="white">crt0stack</text>
</g>
<!-- flagset -->
<g id="node23" class="node">
<title>flagset</title>
<ellipse fill="coral" stroke="coral" cx="1022.41" cy="-865.79" rx="41.69" ry="18"/>
<text text-anchor="middle" x="1022.41" y="-862.09" font-family="Times-Roman" font-size="14.00" fill="white">flagset</text>
</g>
<!-- endicon -->
<g id="node24" class="node">
<title>endicon</title>
<ellipse fill="coral" stroke="coral" cx="1052.91" cy="-946.28" rx="46.29" ry="18"/>
<text text-anchor="middle" x="1052.91" y="-942.58" font-family="Times-Roman" font-size="14.00" fill="white">endicon</text>
</g>
<!-- wasmtime -->
<g id="node25" class="node">
<title>wasmtime</title>
<ellipse fill="coral" stroke="coral" cx="341.32" cy="-1137.76" rx="57.39" ry="18"/>
<text text-anchor="middle" x="341.32" y="-1134.06" font-family="Times-Roman" font-size="14.00" fill="white">wasmtime</text>
</g>
<!-- CI&#45;&#45;bot -->
<g id="edge8" class="edge">
<title>CI&#45;&#45;bot</title>
<path fill="none" stroke="white" d="M587.82,-475.63C555.82,-449.75 488.18,-395.04 456.36,-369.3"/>
</g>
<!-- CI&#45;&#45;bot&#45;test -->
<g id="edge9" class="edge">
<title>CI&#45;&#45;bot&#45;test</title>
<path fill="none" stroke="white" d="M599.58,-471.93C587.62,-434.52 560.02,-348.2 548.02,-310.7"/>
</g>
<!-- Keep&#45;&#45;enarx&#45;keepldr -->
<g id="edge10" class="edge">
<title>Keep&#45;&#45;enarx&#45;keepldr</title>
<path fill="none" stroke="white" d="M901.36,-463.18C934.75,-435.61 1005.78,-376.98 1041.16,-347.77"/>
</g>
<!-- Deployment&#45;&#45;enarx&#45;keepmgr -->
<g id="edge16" class="edge">
<title>Deployment&#45;&#45;enarx&#45;keepmgr</title>
<path fill="none" stroke="white" d="M751.8,-390.08C778.63,-363.55 829.21,-313.54 856.22,-286.84"/>
</g>
<!-- Deployment&#45;&#45;client -->
<g id="edge14" class="edge">
<title>Deployment&#45;&#45;client</title>
<path fill="none" stroke="white" d="M736.43,-389.46C741.04,-354.45 751.1,-278.04 755.7,-243.08"/>
</g>
<!-- Utilities -->
<g id="node33" class="node">
<title>Utilities</title>
<ellipse fill="white" stroke="white" cx="636.21" cy="-207.69" rx="44.39" ry="18"/>
<text text-anchor="middle" x="636.21" y="-203.99" font-family="Times-Roman" font-size="14.00">Utilities</text>
</g>
<!-- Deployment&#45;&#45;Utilities -->
<g id="edge15" class="edge">
<title>Deployment&#45;&#45;Utilities</title>
<path fill="none" stroke="white" d="M725.18,-389.54C706.56,-351.48 663.52,-263.51 644.97,-225.6"/>
</g>
<!-- Runtime&#45;&#45;enarx&#45;wasmldr -->
<g id="edge18" class="edge">
<title>Runtime&#45;&#45;enarx&#45;wasmldr</title>
<path fill="none" stroke="white" d="M570.82,-824.42C543.02,-841.47 498.61,-868.7 470,-886.24"/>
</g>
<!-- Upstream -->
<g id="node34" class="node">
<title>Upstream</title>
<ellipse fill="white" stroke="white" cx="512.57" cy="-1031.42" rx="54.69" ry="18"/>
<text text-anchor="middle" x="512.57" y="-1027.72" font-family="Times-Roman" font-size="14.00">Upstream</text>
</g>
<!-- Runtime&#45;&#45;Upstream -->
<g id="edge19" class="edge">
<title>Runtime&#45;&#45;Upstream</title>
<path fill="none" stroke="white" d="M589.5,-826.7C573.84,-868.37 535,-971.75 519.31,-1013.5"/>
</g>
<!-- Asset Creation -->
<g id="node36" class="node">
<title>Asset Creation</title>
<ellipse fill="white" stroke="white" cx="271.95" cy="-628.59" rx="76.09" ry="18"/>
<text text-anchor="middle" x="271.95" y="-624.89" font-family="Times-Roman" font-size="14.00">Asset Creation</text>
</g>
<!-- Advocacy&#45;&#45;Asset Creation -->
<g id="edge35" class="edge">
<title>Advocacy&#45;&#45;Asset Creation</title>
<path fill="none" stroke="white" d="M441.4,-627.45C413.49,-627.64 378.97,-627.87 348.38,-628.08"/>
</g>
<!-- Write Tutorials -->
<g id="node37" class="node">
<title>Write Tutorials</title>
<ellipse fill="white" stroke="white" cx="345.68" cy="-703.94" rx="75.29" ry="18"/>
<text text-anchor="middle" x="345.68" y="-700.24" font-family="Times-Roman" font-size="14.00">Write Tutorials</text>
</g>
<!-- Advocacy&#45;&#45;Write Tutorials -->
<g id="edge36" class="edge">
<title>Advocacy&#45;&#45;Write Tutorials</title>
<path fill="none" stroke="white" d="M465.92,-642.27C440.42,-655.35 403.7,-674.18 377.56,-687.59"/>
</g>
<!-- enarx.github.io / enarx.dev -->
<g id="node38" class="node">
<title>enarx.github.io / enarx.dev</title>
<ellipse fill="white" stroke="white" cx="383.53" cy="-785.48" rx="132.68" ry="18"/>
<text text-anchor="middle" x="383.53" y="-781.78" font-family="Times-Roman" font-size="14.00">enarx.github.io / enarx.dev</text>
</g>
<!-- Advocacy&#45;&#45;enarx.github.io / enarx.dev -->
<g id="edge37" class="edge">
<title>Advocacy&#45;&#45;enarx.github.io / enarx.dev</title>
<path fill="none" stroke="white" d="M483.11,-644.64C461.7,-674.93 418.03,-736.69 396.34,-767.36"/>
</g>
<!-- Make demos -->
<g id="node39" class="node">
<title>Make demos</title>
<ellipse fill="white" stroke="white" cx="334.38" cy="-527.14" rx="67.69" ry="18"/>
<text text-anchor="middle" x="334.38" y="-523.44" font-family="Times-Roman" font-size="14.00">Make demos</text>
</g>
<!-- Advocacy&#45;&#45;Make demos -->
<g id="edge38" class="edge">
<title>Advocacy&#45;&#45;Make demos</title>
<path fill="none" stroke="white" d="M469.63,-611.03C439.92,-592.6 391.41,-562.51 361.28,-543.82"/>
</g>
<!-- Present, talk about, share Enarx -->
<g id="node40" class="node">
<title>Present, talk about, share Enarx</title>
<ellipse fill="white" stroke="white" cx="388.07" cy="-460.26" rx="155.17" ry="18"/>
<text text-anchor="middle" x="388.07" y="-456.56" font-family="Times-Roman" font-size="14.00">Present, talk about, share Enarx</text>
</g>
<!-- Advocacy&#45;&#45;Present, talk about, share Enarx -->
<g id="edge39" class="edge">
<title>Advocacy&#45;&#45;Present, talk about, share Enarx</title>
<path fill="none" stroke="white" d="M484.02,-609.23C463.39,-577.2 420.33,-510.35 399.65,-478.23"/>
</g>
<!-- Libraries&#45;&#45;primordial -->
<g id="edge31" class="edge">
<title>Libraries&#45;&#45;primordial</title>
<path fill="none" stroke="white" d="M881.09,-804.13C859.33,-817 828.47,-835.25 806.47,-848.25"/>
</g>
<!-- Libraries&#45;&#45;lset -->
<g id="edge28" class="edge">
<title>Libraries&#45;&#45;lset</title>
<path fill="none" stroke="white" d="M956.5,-785.05C995.64,-782.19 1048.92,-778.3 1080.61,-775.99"/>
</g>
<!-- Libraries&#45;&#45;signrel -->
<g id="edge32" class="edge">
<title>Libraries&#45;&#45;signrel</title>
<path fill="none" stroke="white" d="M944.99,-800.53C983.51,-812.66 1042.71,-831.31 1079.58,-842.92"/>
</g>
<!-- Libraries&#45;&#45;mmarinus -->
<g id="edge29" class="edge">
<title>Libraries&#45;&#45;mmarinus</title>
<path fill="none" stroke="white" d="M913.25,-806.74C926.07,-845.42 956.01,-935.8 968.81,-974.45"/>
</g>
<!-- Libraries&#45;&#45;vdso -->
<g id="edge34" class="edge">
<title>Libraries&#45;&#45;vdso</title>
<path fill="none" stroke="white" d="M924.54,-771.69C952.53,-744.22 1007.36,-690.4 1034.52,-663.75"/>
</g>
<!-- Libraries&#45;&#45;iocuddle -->
<g id="edge26" class="edge">
<title>Libraries&#45;&#45;iocuddle</title>
<path fill="none" stroke="white" d="M939.09,-774.5C974.41,-758.79 1031.04,-733.62 1066.15,-718.01"/>
</g>
<!-- Libraries&#45;&#45;frenetic -->
<g id="edge25" class="edge">
<title>Libraries&#45;&#45;frenetic</title>
<path fill="none" stroke="white" d="M903.76,-806.94C895.84,-848.26 876.66,-948.41 868.79,-989.53"/>
</g>
<!-- Libraries&#45;&#45;uabs -->
<g id="edge33" class="edge">
<title>Libraries&#45;&#45;uabs</title>
<path fill="none" stroke="white" d="M894.58,-806.28C872.06,-837.57 825.39,-902.45 803.14,-933.37"/>
</g>
<!-- Libraries&#45;&#45;lebicon -->
<g id="edge27" class="edge">
<title>Libraries&#45;&#45;lebicon</title>
<path fill="none" stroke="white" d="M906.17,-806.93C904.51,-834.69 901.38,-887.16 899.72,-914.84"/>
</g>
<!-- Libraries&#45;&#45;nbytes -->
<g id="edge30" class="edge">
<title>Libraries&#45;&#45;nbytes</title>
<path fill="none" stroke="white" d="M915.51,-770.86C927.18,-745.69 948.4,-699.93 960.11,-674.68"/>
</g>
<!-- Libraries&#45;&#45;crt0stack -->
<g id="edge22" class="edge">
<title>Libraries&#45;&#45;crt0stack</title>
<path fill="none" stroke="white" d="M892.97,-771.24C884.14,-760.49 872.85,-746.74 863.98,-735.93"/>
</g>
<!-- Libraries&#45;&#45;flagset -->
<g id="edge24" class="edge">
<title>Libraries&#45;&#45;flagset</title>
<path fill="none" stroke="white" d="M931.12,-804.63C951.28,-818.14 979.95,-837.35 999.76,-850.62"/>
</g>
<!-- Libraries&#45;&#45;endicon -->
<g id="edge23" class="edge">
<title>Libraries&#45;&#45;endicon</title>
<path fill="none" stroke="white" d="M923.12,-805.82C951.14,-836.14 1009.06,-898.82 1037.07,-929.13"/>
</g>
<!-- Utilities&#45;&#45;sevctl -->
<g id="edge17" class="edge">
<title>Utilities&#45;&#45;sevctl</title>
<path fill="none" stroke="white" d="M631.54,-189.5C622.24,-153.24 601.49,-72.34 592.21,-36.13"/>
</g>
<!-- Upstream&#45;&#45;wasmtime -->
<g id="edge21" class="edge">
<title>Upstream&#45;&#45;wasmtime</title>
<path fill="none" stroke="white" d="M486.93,-1047.34C454.74,-1067.33 399.82,-1101.44 367.42,-1121.56"/>
</g>
<!-- WASI -->
<g id="node35" class="node">
<title>WASI</title>
<ellipse fill="white" stroke="white" cx="512.99" cy="-1229.23" rx="34.39" ry="18"/>
<text text-anchor="middle" x="512.99" y="-1225.53" font-family="Times-Roman" font-size="14.00">WASI</text>
</g>
<!-- Upstream&#45;&#45;WASI -->
<g id="edge20" class="edge">
<title>Upstream&#45;&#45;WASI</title>
<path fill="none" stroke="white" d="M512.61,-1049.68C512.69,-1087.36 512.87,-1173.38 512.95,-1211.02"/>
</g>
<!-- Logos &amp; Images -->
<g id="node41" class="node">
<title>Logos &amp; Images</title>
<ellipse fill="white" stroke="white" cx="83.19" cy="-645.07" rx="83.39" ry="18"/>
<text text-anchor="middle" x="83.19" y="-641.37" font-family="Times-Roman" font-size="14.00">Logos &amp; Images</text>
</g>
<!-- Asset Creation&#45;&#45;Logos &amp; Images -->
<g id="edge40" class="edge">
<title>Asset Creation&#45;&#45;Logos &amp; Images</title>
<path fill="none" stroke="white" d="M200.59,-634.82C187.54,-635.96 173.86,-637.15 160.65,-638.31"/>
</g>
</g>
</svg>
