<svg width="130" height="130" viewBox="0 0 130 130" fill="none" xmlns="http://www.w3.org/2000/svg">
<path d="M85.5 97H43.5C40.716 96.9974 38.0469 95.8903 36.0783 93.9217C34.1097 91.9531 33.0026 89.284 33 86.5V44.5C33.0026 41.716 34.1097 39.0469 36.0783 37.0783C38.0469 35.1097 40.716 34.0026 43.5 34H85.5C88.284 34.0026 90.9531 35.1097 92.9217 37.0783C94.8903 39.0469 95.9974 41.716 96 44.5V86.5C95.9974 89.284 94.8903 91.9531 92.9217 93.9217C90.9531 95.8903 88.284 96.9974 85.5 97V97ZM43.5 37C41.5109 37 39.6032 37.7902 38.1967 39.1967C36.7902 40.6032 36 42.5109 36 44.5V86.5C36 88.4891 36.7902 90.3968 38.1967 91.8033C39.6032 93.2098 41.5109 94 43.5 94H85.5C87.4891 94 89.3968 93.2098 90.8033 91.8033C92.2098 90.3968 93 88.4891 93 86.5V44.5C93 42.5109 92.2098 40.6032 90.8033 39.1967C89.3968 37.7902 87.4891 37 85.5 37H43.5ZM116 86.5C116 86.1022 115.842 85.7206 115.561 85.4393C115.279 85.158 114.898 85 114.5 85H104.5C104.102 85 103.721 85.158 103.439 85.4393C103.158 85.7206 103 86.1022 103 86.5C103 86.8978 103.158 87.2794 103.439 87.5607C103.721 87.842 104.102 88 104.5 88H114.5C114.898 88 115.279 87.842 115.561 87.5607C115.842 87.2794 116 86.8978 116 86.5V86.5ZM116 44.5C116 44.1022 115.842 43.7206 115.561 43.4393C115.279 43.158 114.898 43 114.5 43H104.5C104.102 43 103.721 43.158 103.439 43.4393C103.158 43.7206 103 44.1022 103 44.5C103 44.8978 103.158 45.2794 103.439 45.5607C103.721 45.842 104.102 46 104.5 46H114.5C114.898 46 115.279 45.842 115.561 45.5607C115.842 45.2794 116 44.8978 116 44.5V44.5ZM116 58.5C116 58.1022 115.842 57.7206 115.561 57.4393C115.279 57.158 114.898 57 114.5 57H104.5C104.102 57 103.721 57.158 103.439 57.4393C103.158 57.7206 103 58.1022 103 58.5C103 58.8978 103.158 59.2794 103.439 59.5607C103.721 59.842 104.102 60 104.5 60H114.5C114.898 60 115.279 59.842 115.561 59.5607C115.842 59.2794 116 58.8978 116 58.5V58.5ZM116 72.5C116 72.1022 115.842 71.7206 115.561 71.4393C115.279 71.158 114.898 71 114.5 71H104.5C104.102 71 103.721 71.158 103.439 71.4393C103.158 71.7206 103 72.1022 103 72.5C103 72.8978 103.158 73.2794 103.439 73.5607C103.721 73.842 104.102 74 104.5 74H114.5C114.898 74 115.279 73.842 115.561 73.5607C115.842 73.2794 116 72.8978 116 72.5V72.5ZM26 86.5C26 86.1022 25.842 85.7206 25.5607 85.4393C25.2794 85.158 24.8978 85 24.5 85H14.5C14.1022 85 13.7206 85.158 13.4393 85.4393C13.158 85.7206 13 86.1022 13 86.5C13 86.8978 13.158 87.2794 13.4393 87.5607C13.7206 87.842 14.1022 88 14.5 88H24.5C24.8978 88 25.2794 87.842 25.5607 87.5607C25.842 87.2794 26 86.8978 26 86.5ZM26 44.5C26 44.1022 25.842 43.7206 25.5607 43.4393C25.2794 43.158 24.8978 43 24.5 43H14.5C14.1022 43 13.7206 43.158 13.4393 43.4393C13.158 43.7206 13 44.1022 13 44.5C13 44.8978 13.158 45.2794 13.4393 45.5607C13.7206 45.842 14.1022 46 14.5 46H24.5C24.8978 46 25.2794 45.842 25.5607 45.5607C25.842 45.2794 26 44.8978 26 44.5ZM26 58.5C26 58.1022 25.842 57.7206 25.5607 57.4393C25.2794 57.158 24.8978 57 24.5 57H14.5C14.1022 57 13.7206 57.158 13.4393 57.4393C13.158 57.7206 13 58.1022 13 58.5C13 58.8978 13.158 59.2794 13.4393 59.5607C13.7206 59.842 14.1022 60 14.5 60H24.5C24.8978 60 25.2794 59.842 25.5607 59.5607C25.842 59.2794 26 58.8978 26 58.5ZM26 72.5C26 72.1022 25.842 71.7206 25.5607 71.4393C25.2794 71.158 24.8978 71 24.5 71H14.5C14.1022 71 13.7206 71.158 13.4393 71.4393C13.158 71.7206 13 72.1022 13 72.5C13 72.8978 13.158 73.2794 13.4393 73.5607C13.7206 73.842 14.1022 74 14.5 74H24.5C24.8978 74 25.2794 73.842 25.5607 73.5607C25.842 73.2794 26 72.8978 26 72.5ZM45 115.5V105.5C45 105.102 44.842 104.721 44.5607 104.439C44.2794 104.158 43.8978 104 43.5 104C43.1022 104 42.7206 104.158 42.4393 104.439C42.158 104.721 42 105.102 42 105.5V115.5C42 115.898 42.158 116.279 42.4393 116.561C42.7206 116.842 43.1022 117 43.5 117C43.8978 117 44.2794 116.842 44.5607 116.561C44.842 116.279 45 115.898 45 115.5V115.5ZM87 115.5V105.5C87 105.102 86.842 104.721 86.5607 104.439C86.2794 104.158 85.8978 104 85.5 104C85.1022 104 84.7206 104.158 84.4393 104.439C84.158 104.721 84 105.102 84 105.5V115.5C84 115.898 84.158 116.279 84.4393 116.561C84.7206 116.842 85.1022 117 85.5 117C85.8978 117 86.2794 116.842 86.5607 116.561C86.842 116.279 87 115.898 87 115.5V115.5ZM73 115.5V105.5C73 105.102 72.842 104.721 72.5607 104.439C72.2794 104.158 71.8978 104 71.5 104C71.1022 104 70.7206 104.158 70.4393 104.439C70.158 104.721 70 105.102 70 105.5V115.5C70 115.898 70.158 116.279 70.4393 116.561C70.7206 116.842 71.1022 117 71.5 117C71.8978 117 72.2794 116.842 72.5607 116.561C72.842 116.279 73 115.898 73 115.5V115.5ZM59 115.5V105.5C59 105.102 58.842 104.721 58.5607 104.439C58.2794 104.158 57.8978 104 57.5 104C57.1022 104 56.7206 104.158 56.4393 104.439C56.158 104.721 56 105.102 56 105.5V115.5C56 115.898 56.158 116.279 56.4393 116.561C56.7206 116.842 57.1022 117 57.5 117C57.8978 117 58.2794 116.842 58.5607 116.561C58.842 116.279 59 115.898 59 115.5V115.5ZM45 25.5V15.5C45 15.1022 44.842 14.7206 44.5607 14.4393C44.2794 14.158 43.8978 14 43.5 14C43.1022 14 42.7206 14.158 42.4393 14.4393C42.158 14.7206 42 15.1022 42 15.5V25.5C42 25.8978 42.158 26.2794 42.4393 26.5607C42.7206 26.842 43.1022 27 43.5 27C43.8978 27 44.2794 26.842 44.5607 26.5607C44.842 26.2794 45 25.8978 45 25.5ZM87 25.5V15.5C87 15.1022 86.842 14.7206 86.5607 14.4393C86.2794 14.158 85.8978 14 85.5 14C85.1022 14 84.7206 14.158 84.4393 14.4393C84.158 14.7206 84 15.1022 84 15.5V25.5C84 25.8978 84.158 26.2794 84.4393 26.5607C84.7206 26.842 85.1022 27 85.5 27C85.8978 27 86.2794 26.842 86.5607 26.5607C86.842 26.2794 87 25.8978 87 25.5ZM73 25.5V15.5C73 15.1022 72.842 14.7206 72.5607 14.4393C72.2794 14.158 71.8978 14 71.5 14C71.1022 14 70.7206 14.158 70.4393 14.4393C70.158 14.7206 70 15.1022 70 15.5V25.5C70 25.8978 70.158 26.2794 70.4393 26.5607C70.7206 26.842 71.1022 27 71.5 27C71.8978 27 72.2794 26.842 72.5607 26.5607C72.842 26.2794 73 25.8978 73 25.5ZM59 25.5V15.5C59 15.1022 58.842 14.7206 58.5607 14.4393C58.2794 14.158 57.8978 14 57.5 14C57.1022 14 56.7206 14.158 56.4393 14.4393C56.158 14.7206 56 15.1022 56 15.5V25.5C56 25.8978 56.158 26.2794 56.4393 26.5607C56.7206 26.842 57.1022 27 57.5 27C57.8978 27 58.2794 26.842 58.5607 26.5607C58.842 26.2794 59 25.8978 59 25.5Z" fill="#000000"/>
</svg>