<?xml version="1.0" encoding="UTF-8" standalone="no"?>
<!-- Created with Inkscape (http://www.inkscape.org/) -->

<svg
   width="72mm"
   height="72mm"
   viewBox="0 0 72 72"
   version="1.1"
   id="svg1613"
   inkscape:version="1.1 (ce6663b3b7, 2021-05-25)"
   sodipodi:docname="logo.svg"
   inkscape:export-filename="/home/nick/docs/static/img/enarx.ico"
   inkscape:export-xdpi="11.288889"
   inkscape:export-ydpi="11.288889"
   xmlns:inkscape="http://www.inkscape.org/namespaces/inkscape"
   xmlns:sodipodi="http://sodipodi.sourceforge.net/DTD/sodipodi-0.dtd"
   xmlns="http://www.w3.org/2000/svg"
   xmlns:svg="http://www.w3.org/2000/svg"
   xmlns:rdf="http://www.w3.org/1999/02/22-rdf-syntax-ns#"
   xmlns:cc="http://creativecommons.org/ns#"
   xmlns:dc="http://purl.org/dc/elements/1.1/">
  <defs
     id="defs1607" />
  <sodipodi:namedview
     id="base"
     pagecolor="#ffffff"
     bordercolor="#666666"
     borderopacity="1.0"
     inkscape:pageopacity="0"
     inkscape:pageshadow="2"
     inkscape:zoom="2.8"
     inkscape:cx="96.25"
     inkscape:cy="68.035714"
     inkscape:document-units="mm"
     inkscape:current-layer="layer1"
     showgrid="false"
     inkscape:window-width="1314"
     inkscape:window-height="704"
     inkscape:window-x="0"
     inkscape:window-y="0"
     inkscape:window-maximized="1"
     inkscape:pagecheckerboard="0" />
  <metadata
     id="metadata1610">
    <rdf:RDF>
      <cc:Work
         rdf:about="">
        <dc:format>image/svg+xml</dc:format>
        <dc:type
           rdf:resource="http://purl.org/dc/dcmitype/StillImage" />
      </cc:Work>
    </rdf:RDF>
  </metadata>
  <g
     inkscape:label="Layer 1"
     inkscape:groupmode="layer"
     id="layer1"
     transform="translate(0,-225)">
    <path
       style="display:inline;opacity:1;fill:#0a0a0a;fill-opacity:1;stroke:none;stroke-width:3.20884061;stroke-linecap:round;stroke-linejoin:round;stroke-miterlimit:4;stroke-dasharray:none;stroke-opacity:1"
       d="m 14.282361,226.50977 v 6.30246 h -5.16e-4 v 9.42113 h 35.969897 c -1.8704,1.44094 -3.68173,2.90585 -5.427575,4.38785 H 14.281845 v 9.42113 h 20.469034 c -1.41922,1.46555 -2.770484,2.9307 -4.0566,4.38784 H 14.281845 v 3.36569 a 48.615123,48.615123 0 0 0 1.709457,6.05544 h 7.226432 c -1.050213,1.4937 -2.01513,2.95933 -2.891298,4.38785 h -2.529043 a 48.615123,48.615123 0 0 0 1.176673,2.30787 c -1.132972,2.01663 -2.081064,3.94716 -2.820501,5.75624 a 1.0001,1.0001 0 1 0 1.851568,0.75602 C 23.13846,270.50032 39.148876,251.02498 61.87067,236.50658 a 1.0001,1.0001 0 0 0 -0.538985,-1.8495 1.0001,1.0001 0 0 0 -0.537435,0.16381 c -1.414825,0.90403 -2.803379,1.82646 -4.165637,2.76417 v -1.65416 h 5.19e-4 v -9.42113 h -9.562209 v 6.30246 H 40.23685 v -6.30246 h -9.562208 v 6.30246 h -6.830073 v -6.30246 z m 41.648104,16.32562 a 1.7499999,1.7499999 0 0 0 -1.749764,1.74976 1.7499999,1.7499999 0 0 0 0.826823,1.4857 l -0.150894,9.60613 a 1.7499999,1.7499999 0 0 0 -0.675929,1.37873 1.7499999,1.7499999 0 0 0 1.749764,1.75028 1.7499999,1.7499999 0 0 0 1.749764,-1.75028 1.7499999,1.7499999 0 0 0 -0.821137,-1.48208 l 0.150378,-9.61337 a 1.7499999,1.7499999 0 0 0 0.670759,-1.37511 1.7499999,1.7499999 0 0 0 -1.749764,-1.74976 z m -5.005379,7.14013 -3.242178,0.0661 a 1.0001,1.0001 0 0 0 -0.61495,0.23048 c -1.680197,1.38883 -3.369334,2.80533 -5.093748,5.00486 a 1.7499999,1.7499999 0 0 0 -1.658297,1.74563 1.7499999,1.7499999 0 0 0 1.749766,1.74976 1.7499999,1.7499999 0 0 0 1.75028,-1.74976 1.7499999,1.7499999 0 0 0 -0.135909,-0.67645 c 1.462255,-1.8316 2.881654,-3.0468 4.409033,-4.3124 l 1.8557,-0.0372 v 3.49126 a 1.7499999,1.7499999 0 0 0 -0.908987,1.53479 1.7499999,1.7499999 0 0 0 1.749764,1.74976 1.7499999,1.7499999 0 0 0 1.749764,-1.74976 1.7499999,1.7499999 0 0 0 -0.590661,-1.30793 v -4.73925 a 1.0001,1.0001 0 0 0 -1.019577,-0.99994 z m -15.039909,11.5688 a 1.7499999,1.7499999 0 0 0 -1.749764,1.74977 1.7499999,1.7499999 0 0 0 1.749764,1.75028 1.7499999,1.7499999 0 0 0 1.438672,-0.75654 1.0001,1.0001 0 0 0 0.116789,0.006 h 16.38608 a 1.7499999,1.7499999 0 0 0 1.435571,0.75086 1.7499999,1.7499999 0 0 0 1.749764,-1.75028 1.7499999,1.7499999 0 0 0 -1.749764,-1.74977 1.7499999,1.7499999 0 0 0 -1.432989,0.74931 H 37.440638 a 1.0001,1.0001 0 0 0 -0.116273,0.005 1.7499999,1.7499999 0 0 0 -1.439188,-0.75448 z m 13.055534,5.71542 a 1.7499999,1.7499999 0 0 0 -1.458826,0.78445 l -16.917831,0.0326 a 1.0001,1.0001 0 0 0 -0.718817,0.30696 c -1.59988,1.66406 -2.643968,3.18308 -3.659209,4.84002 a 1.7499999,1.7499999 0 0 0 -1.198377,1.65932 1.7499999,1.7499999 0 0 0 1.749764,1.75029 1.7499999,1.7499999 0 0 0 1.749763,-1.75029 1.7499999,1.7499999 0 0 0 -0.336412,-1.02835 c 0.834295,-1.31678 1.691658,-2.49559 2.881995,-3.77755 l 16.498734,-0.0331 a 1.7499999,1.7499999 0 0 0 1.409216,0.71572 1.7499999,1.7499999 0 0 0 1.749763,-1.75028 1.7499999,1.7499999 0 0 0 -1.749763,-1.74976 z m 5.569685,0 a 1.7499999,1.7499999 0 0 0 -1.749764,1.74976 1.7499999,1.7499999 0 0 0 0.358635,1.05782 c -0.393713,1.06052 -0.853014,2.09467 -1.37356,3.10575 a 1.7499999,1.7499999 0 0 0 -1.630908,1.74357 1.7499999,1.7499999 0 0 0 1.749764,1.75028 1.7499999,1.7499999 0 0 0 1.750282,-1.75028 1.7499999,1.7499999 0 0 0 -0.152448,-0.71056 c 0.592498,-1.14016 1.114994,-2.31367 1.559597,-3.52278 a 1.7499999,1.7499999 0 0 0 1.238684,-1.6738 1.7499999,1.7499999 0 0 0 -1.750282,-1.74976 z M 33.391789,274.034 a 1.0001,1.0001 0 0 0 -0.84336,0.46302 l -2.991548,4.6793 a 1.7499999,1.7499999 0 0 0 -1.576131,1.7415 1.7499999,1.7499999 0 0 0 1.749764,1.74976 1.7499999,1.7499999 0 0 0 1.750282,-1.74976 1.7499999,1.7499999 0 0 0 -0.176734,-0.76171 l 2.63498,-4.12016 10.579716,0.0119 2.022616,3.97185 a 1.7499999,1.7499999 0 0 0 -0.250114,0.89814 1.7499999,1.7499999 0 0 0 1.75028,1.74976 1.7499999,1.7499999 0 0 0 1.749764,-1.74976 1.7499999,1.7499999 0 0 0 -1.424202,-1.71876 l -2.344042,-4.60437 a 1.0001,1.0001 0 0 0 -0.890902,-0.54725 z m -10.281542,5.13354 a 1.7499999,1.7499999 0 0 0 -1.749764,1.75028 1.7499999,1.7499999 0 0 0 1.351854,1.7017 c 0.661967,1.1128 1.485504,2.45321 3.837493,4.57182 a 1.7499999,1.7499999 0 0 0 -0.0015,0.0346 1.7499999,1.7499999 0 0 0 1.750279,1.74977 1.7499999,1.7499999 0 0 0 1.749764,-1.74977 1.7499999,1.7499999 0 0 0 -1.749764,-1.75028 1.7499999,1.7499999 0 0 0 -0.562755,0.0946 c -1.909815,-1.72647 -2.566966,-2.72328 -3.15123,-3.70934 a 1.7499999,1.7499999 0 0 0 0.275953,-0.94309 1.7499999,1.7499999 0 0 0 -1.75028,-1.75028 z m 13.381096,0 a 1.7499999,1.7499999 0 0 0 -1.750283,1.75028 1.7499999,1.7499999 0 0 0 1.750283,1.74976 1.7499999,1.7499999 0 0 0 1.749763,-1.74976 1.7499999,1.7499999 0 0 0 -1.749763,-1.75028 z m 5.5578,0 a 1.7499999,1.7499999 0 0 0 -1.749766,1.75028 1.7499999,1.7499999 0 0 0 0.749826,1.43299 l -0.05168,6.26525 c -1.517933,1.72389 -3.12739,3.2337 -4.832265,4.53099 -0.905618,-0.6892 -1.774682,-1.37782 -2.415871,-2.14044 l 0.01189,-2.73627 1.515668,-0.0176 a 1.7499999,1.7499999 0 0 0 1.414901,0.72296 1.7499999,1.7499999 0 0 0 1.749764,-1.74977 1.7499999,1.7499999 0 0 0 -1.749764,-1.75028 1.7499999,1.7499999 0 0 0 -1.453141,0.7767 l -2.485637,0.0279 a 1.0001,1.0001 0 0 0 -0.988052,0.99581 l -0.01757,4.1522 a 1.0001,1.0001 0 0 0 0.212908,0.62115 c 1.032899,1.32013 2.357546,2.30839 3.627168,3.24631 a 1.0001,1.0001 0 0 0 1.173572,0.01 c 2.199585,-1.5659 4.157977,-3.49619 5.988264,-5.60327 a 1.0001,1.0001 0 0 0 0.24443,-0.64854 l 0.05529,-6.70037 a 1.7499999,1.7499999 0 0 0 0.750343,-1.43557 1.7499999,1.7499999 0 0 0 -1.75028,-1.75028 z"
       id="rect1593-3-5"
       inkscape:export-xdpi="96"
       inkscape:export-ydpi="96"
       inkscape:connector-curvature="0" />
  </g>
</svg>
