<svg width="130" height="130" viewBox="0 0 130 130" fill="none" xmlns="http://www.w3.org/2000/svg">
<g clip-path="url(#clip0)">
<path d="M46.16 114.28C45.5654 114.283 44.9766 114.164 44.43 113.93C33.6273 109.384 24.6984 101.289 19.1181 90.9824C13.5378 80.6758 11.6399 68.7741 13.7379 57.2431C15.836 45.7122 21.8044 35.2417 30.6574 27.5612C39.5103 19.8807 50.7183 15.4497 62.43 15C74.4984 14.4877 86.3629 18.234 95.949 25.5836C105.535 32.9333 112.233 43.4187 114.871 55.2064C117.509 66.9942 115.919 79.3341 110.38 90.0687C104.841 100.803 95.7055 109.249 84.57 113.93C84.0113 114.172 83.4089 114.297 82.8 114.297C82.1911 114.297 81.5886 114.172 81.03 113.93C80.4678 113.675 79.9623 113.31 79.5433 112.856C79.1242 112.403 78.8001 111.87 78.59 111.29L68.94 83.71C68.5879 82.7102 68.6016 81.6181 68.9788 80.6276C69.356 79.637 70.0721 78.8123 71 78.3V78.3C73.1335 77.1268 74.9103 75.3988 76.1425 73.2988C77.3747 71.1987 78.0165 68.8047 78 66.37C77.9353 62.9328 76.5761 59.6465 74.1939 57.1679C71.8116 54.6893 68.5819 53.2008 65.15 53C63.3228 52.9105 61.4966 53.1935 59.7823 53.8319C58.068 54.4703 56.5014 55.4506 55.1779 56.7134C53.8543 57.9762 52.8014 59.4949 52.0832 61.1773C51.365 62.8597 50.9964 64.6707 51 66.5C51.0093 68.9095 51.6633 71.2727 52.8942 73.3441C54.1252 75.4156 55.8881 77.1198 58 78.28C58.9373 78.7914 59.6629 79.6188 60.0474 80.6149C60.4319 81.6111 60.4506 82.7114 60.1 83.72L50.4 111.26C50.1995 111.84 49.8833 112.372 49.4708 112.826C49.0583 113.28 48.5579 113.645 48 113.9C47.4213 114.158 46.7936 114.288 46.16 114.28ZM64.52 18C63.86 18 63.21 18 62.52 18C51.4918 18.4286 40.9397 22.6056 32.6061 29.8413C24.2725 37.077 18.656 46.9385 16.6839 57.7974C14.7119 68.6562 16.5024 79.8629 21.7597 89.5667C27.017 99.2705 35.4267 106.891 45.6 111.17C45.7807 111.251 45.9767 111.293 46.175 111.293C46.3732 111.293 46.5692 111.251 46.75 111.17C46.9406 111.089 47.1121 110.969 47.2534 110.817C47.3946 110.665 47.5025 110.486 47.57 110.29L57.22 82.75C57.3354 82.4079 57.3253 82.036 57.1916 81.7007C57.0578 81.3654 56.8091 81.0886 56.49 80.92C53.9177 79.4916 51.7741 77.4015 50.2813 74.8661C48.7886 72.3307 48.0009 69.4422 48 66.5C47.996 64.2646 48.4465 62.0518 49.3242 59.996C50.2018 57.9402 51.4883 56.0842 53.1055 54.541C54.7226 52.9978 56.6366 51.7994 58.7312 51.0188C60.8258 50.2381 63.0573 49.8915 65.29 50C69.4838 50.2482 73.43 52.068 76.3417 55.0965C79.2534 58.1249 80.9167 62.1396 81 66.34C81.027 69.3139 80.2483 72.2397 78.7465 74.8068C77.2446 77.3738 75.0757 79.4863 72.47 80.92V80.92C72.1603 81.0896 71.921 81.3637 71.7946 81.6933C71.6683 82.023 71.6631 82.3868 71.78 82.72L81.44 110.27C81.5074 110.466 81.6153 110.645 81.7565 110.797C81.8978 110.949 82.0693 111.069 82.26 111.15C82.4414 111.229 82.6371 111.27 82.835 111.27C83.0328 111.27 83.2286 111.229 83.41 111.15C93.7039 106.784 102.173 98.9953 107.384 89.1021C112.595 79.209 114.227 67.8193 112.005 56.8608C109.783 45.9023 103.842 36.0483 95.189 28.9667C86.5358 21.885 75.7015 18.0109 64.52 18V18Z" fill="#000000"/>
</g>
<defs>
<clipPath id="clip0">
<rect width="103" height="99.28" fill="white" transform="translate(13 15)"/>
</clipPath>
</defs>
</svg>